#!OML:ASF F:\VICON\USERDATA\INSTALL\rory3\rory3.ASF
:FULLY-SPECIFIED
:DEGREES
137
root 1.5542329138205948 17.878661346577406 52.93998386740356 -2.9121632421843118 -1.4718783643184559 -0.9270641469064969
lfemur 5.927877600888051 -3.7040216836034 -21.51823483455611
ltibia 38.7566222583063
lfoot -3.3462916087784764 -2.742448929727015
ltoes -4.959930033580646
rfemur -21.85490996703953 2.3687302307650406 24.518034432184244
rtibia 29.77933321837861
rfoot -9.489255395771847 -6.889988511652179
rtoes 1.8801800003028093
lowerback 1.0 -2.0112696824637175 -1.4350969309419246
upperback -0.14355256433072489 -2.6003480572432522 1.9546568654993832
thorax -4.8723515495325405 -1.2569670895960143 3.696223785008013
lowerneck -16.18708682902619 -2.7055530266728147 -1.7862930420393952
upperneck 23.709679853699093 -3.211985837467706 -0.16408514034899446
head 10.361332703455576 -1.673958298469239 -0.1614933429408879
lclavicle -1.969472818891529e-15 -2.440895036888497e-16
lhumerus -29.027625869408457 1.1777657068166612 82.11731699789091
lradius 22.766328737555753
lwrist 6.551649693101991
lhand -27.29771123284806 23.63671796435654
lfingers nan
lthumb -0.2547495019979129 54.11402484669786
rclavicle -1.934760718526187e-15 -2.1820032367432104e-16
rhumerus -31.290633800855293 -25.063252659017163 -75.46756022554074
rradius 31.86816595545917
rwrist 3.153103730763009
rhand -18.230939992683997 1.0
rfingers nan
rthumb 8.415316908342968 -7.866041843148188
138
root 1.5440487862830157 17.87327543862885 52.27110283842742 -2.941155751723339 -1.6205434369552207 -1.7499202253991972
lfemur 3.874115814981126 -3.2029812443965957 -20.006141636071984
ltibia 43.3800107698993
lfoot -3.6616685883277267 -1.9820001721373908
ltoes -4.960752551019716
rfemur -20.09427420392577 2.8229887170394017 25.68141290250462
rtibia 29.40588035791279
rfoot -10.458933383519643 -7.66772093019482
rtoes 2.8558909543734865
lowerback 1.0 -1.897898014267771 -0.8525391125610884
upperback -0.11294376490615515 -2.3697131469163057 2.0490032607251245
thorax -4.910095256205498 -1.15039158854075 3.558328660022251
lowerneck -16.217716129401825 -2.7264104473152164 -1.7438834019815135
upperneck 23.500065366300518 -3.252160221910685 -0.2176610498510353
head 10.272125639769463 -1.6926543275169716 -0.19579324401742731
lclavicle -1.9693496732157536e-15 -2.442878436775419e-16
lhumerus -29.115131192795573 1.2172049140364871 82.20497012607122
lradius 22.65333878896486
lwrist 6.645757474872514
lhand -27.258336640113257 23.746215494544195
lfingers nan
lthumb -0.28988394714176613 54.08350285138623
rclavicle -1.9357828966262694e-15 -2.1930424439942694e-16
rhumerus -31.04381096645482 -24.94388572056357 -75.34096304183433
rradius 31.848502690770477
rwrist 3.0793394973631587
rhand -18.265410987395324 1.0
rfingers nan
rthumb 8.394190021605285 -7.904954635899654
139
root 1.5239200589095223 17.86655608015371 51.3470013164822 -2.956673071616062 -1.7527347283231896 -2.7413538816295766
lfemur 1.3342241538789708 -2.6250611077945725 -18.23938717373085
ltibia 48.03491667173084
lfoot -4.272595041640143 -0.7323690703111629
ltoes -5.15504109077852
rfemur -18.88434738506345 3.2244203522982664 26.741621240129156
rtibia 29.866486284737306
rfoot -11.826238036415122 -8.395260012811486
rtoes 3.48948430902226
lowerback 1.0 -1.6913703866887995 -0.09655886795369906
upperback -0.09380845466487198 -1.9861782532094956 2.1769633997721116
thorax -5.011856087391418 -0.9652173112082876 3.333480748100753
lowerneck -16.250521947149338 -2.7534473583438253 -1.6560718084102442
upperneck 23.25296860935239 -3.306234147520391 -0.2698350422452747
head 10.169229383585668 -1.7168346027418038 -0.2358766741640443
lclavicle -1.9684704624082063e-15 -2.442521832140942e-16
lhumerus -29.247383648533763 1.12265348962194 82.27977112490271
lradius 22.62671806170465
lwrist 6.675758909387223
lhand -27.36461866283611 23.58617230112366
lfingers nan
lthumb -0.37969616589751576 53.97307676992826
rclavicle -1.9348824281423323e-15 -2.1911819560997467e-16
rhumerus -30.85622941282217 -24.849930631264492 -75.20101683009054
rradius 31.859659325175762
rwrist 3.0297064356672307
rhand -18.25896630568612 1.0
rfingers nan
rthumb 8.445209258626164 -7.820693562051458
140
root 1.5116129397788385 17.860071102087833 51.139013967233964 -3.058103353930129 -1.7813474909038498 -3.3493885937268897
lfemur -1.4555367407028914 -2.091113024884477 -16.850584561158403
ltibia 52.23731229642604
lfoot -4.975285826141006 -0.29169708213012124
ltoes -5.045975152425056
rfemur -16.69001570503543 3.6678451241941135 27.64222467431636
rtibia 30.384606515606652
rfoot -13.333992798903612 -9.201760758270146
rtoes 3.514215203811218
lowerback 1.0 -1.459839543535626 0.43659323783113335
upperback -0.07124486680532072 -1.5996774097746924 2.259425589770441
thorax -5.12786592248405 -0.764339524565844 3.097788720489047
lowerneck -16.307661981112194 -2.8068613808665956 -1.5551447553689277
upperneck 22.96680196812628 -3.4111845241396717 -0.306650926820396
head 10.066919909174034 -1.7576344110913953 -0.28305571134440843
lclavicle -1.9666409967530514e-15 -2.4378461035468705e-16
lhumerus -29.39117602763705 0.9653773664700251 82.32558792329678
lradius 22.676980424191356
lwrist 6.747508325960012
lhand -27.32450319662072 23.72721740940245
lfingers nan
lthumb -0.4138117671376867 53.95599398035232
rclavicle -1.9324436527941217e-15 -2.1793059480822295e-16
rhumerus -30.762315991823282 -24.737777914991305 -74.97822057107557
rradius 31.921686198610786
rwrist 3.014311854587744
rhand -18.300711309264578 1.0
rfingers nan
rthumb 8.44253896605888 -7.8336976491801185
141
root 1.5143000869022967 17.860924717165876 51.78530355828463 -3.071722222591904 -1.637730586274086 -4.088344711019769
lfemur -4.6225069382582475 -1.6743197563749628 -15.496236086579678
ltibia 55.740385496971044
lfoot -5.446551228841278 0.4983952500487927
ltoes -5.729718376343051
rfemur -14.763489145724876 3.85448353818194 28.287461409683797
rtibia 30.765647548443454
rfoot -14.507986114620504 -10.016353774979951
rtoes 3.0583999586599115
lowerback 1.0 -1.193616017039093 1.1477227930814253
upperback -0.05313675994444922 -1.1031395047264119 2.3586320944771253
thorax -5.271776712246685 -0.5271838912914224 2.703239445655533
lowerneck -16.350381720998406 -2.8727801227736003 -1.4260441469758605
upperneck 22.67455651292862 -3.539309086184565 -0.3385676617774543
head 9.966870010308414 -1.8063670414213777 -0.33362058636071956
lclavicle -1.9646816685950733e-15 -2.4331609649530817e-16
lhumerus -29.488440271324148 0.8996950043019947 82.34726774589953
lradius 22.748728516460496
lwrist 6.873936674252089
lhand -27.409522677473085 23.607074480191372
lfingers nan
lthumb -0.4894613496487672 53.86495825518195
rclavicle -1.929239169970005e-15 -2.1619321678380406e-16
rhumerus -30.782414912935955 -24.59655980814401 -74.70897623261588
rradius 32.036838099591066
rwrist 3.0470120513416674
rhand -18.27656733064141 1.0
rfingers nan
rthumb 8.461546839627143 -7.8021444697575255
